# xmcd
#
# Track frame offsets: 
#        150
#        18839
#        30281
#        40679
#        53715
#        64238
#        74753
#        88937
#        104295
#        116313
#        127503
#        143345
#
# Disc length: 2065 seconds
#
# Revision: 0
# Processed by: cddbd v1.5.2PL0 Copyright (c) Steve Scherf et al.
# Submitted via: ExactAudioCopy v0.95b4
#
DISCID=90080f0c
DTITLE=Kenny Rogers - Simply The Best [CD2]
DYEAR=2004
DGENRE=Country
TTITLE0=I Believe In Music
TTITLE1=Listen To The Music
TTITLE2=Once Again She's All Alone
TTITLE3=Then I Miss You
TTITLE4=Good Time  Liberator
TTITLE5=New Design
TTITLE6=Sunshine
TTITLE7=Tell It A Brother
TTITLE8=A Poem For My Little Lady
TTITLE9=Always Leaving, Always Gone
TTITLE10=Mamma's Waiting
TTITLE11=Girl, Get A Hold Of Yourself
EXTD=
EXTT0=
EXTT1=
EXTT2=
EXTT3=
EXTT4=
EXTT5=
EXTT6=
EXTT7=
EXTT8=
EXTT9=
EXTT10=
EXTT11=
PLAYORDER=
